<svg xmlns="http://www.w3.org/2000/svg" width="1035" height="2029"><path fill-rule="evenodd" d="M1022.107 386.445c0 23.177.08 46.544.08 69.721 1.885 1.097 3.993 2.664 5.879 3.76-.158 49.33-.09 97.697-.247 147.027-2.369 1.221-3.647 2.108-5.583 2.957.157 12.059-.202 24.822-.045 36.88 1.885 1.097 3.761 2.212 5.645 3.308 0 34.139.156 68.457.156 102.596 0 12.495-.467 43.055-.579 44.921-1.686.868-3.457 1.566-5.185 2.349.157 296.45-.079 594.49.08 890.938.391 44.542.075 90.721.075 135.823-.544 33.847-.197 64.002-7.469 87.822-9.465 31.004-22.743 57.462-45.518 75.087-44.889 34.738-80.126 37.819-159.608 37.82 31.144.254-56.905.057-229.891.002-17.277-3.769-30.021-2.842-62.551-2.842-38.025 0-45.331-.301-59.443 2.854-82.762-.08-177.035-.134-282.785-.134-28.554-2.71-51.651-5.716-72.352-15.605-39.043-18.651-64.317-47.338-78.314-90.923-9.472-29.492-9.293-67.225-9.293-105.847 0-48.86-.119-97.841-.119-146.701.834-306.271.867-612.656.429-919.01-1.885-1.097-3.846-2.298-5.731-3.394 0-78.459-.071-155.127-.013-234.004 1.885-1.096 3.863-3.538 5.748-4.634-.157-66.557-.244-133.227-.401-199.783 0-33.043-.318-65.975.142-99.177.009-36.398-.062-72.332 8.634-100.42 15.209-49.124 46.925-81.525 95.977-97.645 38.162-12 93.431-9.923 143.091-9.923h520.348C849.201.263 909.557.069 949.845 24.476c28.558 17.301 47.239 39.539 60.461 72.233 4.189 10.358 7.868 26.377 9.463 38.441.766 9.314 1.795 25.982 2.762 37.709-.157 30.225-.277 106.775-.434 137 4.085-.066 3.375.344 5.48 1.91 0 18.322.148 37.297.148 55.62.001 7.338 1.125 18.576-1.336 18.872-1.1-.156-3.182.341-4.282.184zM471.715 2026.76h.943-.943z"/></svg>